# xmcd CD database file
#
# Track frame offsets:
#	150
#	23175
#	37735
#	60732
#
# Disc length: 1002 seconds
#
# Revision: 1
# Processed by: cddbd v1.5.1PL0 Copyright (c) Steve Scherf et al.
# Submitted via: CDex 1.51
#
DISCID=2703e804
DTITLE=井上陽水 - 5月の別れ
DYEAR=2004
DGENRE=JPop
TTITLE0=5月の別れ
TTITLE1=Be-Pop Junggler
TTITLE2=5月の別れ -Instumental-
TTITLE3=Be-Pop Junggler -Instumental-
EXTD=YEAR: 2004
EXTT0=
EXTT1=
EXTT2=
EXTT3=
PLAYORDER=
